<svg width="453" height="453" viewBox="0 0 453 453" fill="none" xmlns="http://www.w3.org/2000/svg">
<path d="M226.508 52.3374C133.141 52.3374 56.6403 125.88 51.8743 218.079C51.7153 220.754 51.6289 223.443 51.6289 226.156V227.217C51.6289 227.352 51.6289 227.486 51.6324 227.621C52.4238 323.38 130.567 401.035 226.508 401.035C322.45 401.035 400.593 323.38 401.384 227.621C401.388 227.486 401.388 227.352 401.388 227.217C401.388 227.041 401.388 226.861 401.388 226.685C401.388 226.508 401.388 226.332 401.388 226.152C401.388 226.018 401.388 225.883 401.384 225.748C400.593 129.989 322.45 52.3374 226.508 52.3374V52.3374ZM226.508 374.337C144.982 374.337 78.6177 308.145 78.3274 226.685C78.3343 224.366 78.4034 222.057 78.5175 219.762C81.8388 162.619 129.374 117.146 187.333 117.146C247.442 117.146 296.343 166.047 296.343 226.156V227.217C296.343 266.561 264.336 298.568 224.991 298.568C185.65 298.568 153.64 266.561 153.64 227.217V226.156C153.64 208.996 167.599 195.033 184.762 195.033C201.922 195.033 215.881 208.996 215.881 226.156C215.881 233.528 221.856 239.503 229.228 239.503C236.604 239.503 242.579 233.528 242.579 226.156C242.579 194.273 216.641 168.335 184.762 168.335C152.879 168.335 126.941 194.273 126.941 226.156V227.217C126.941 281.281 170.927 325.267 224.991 325.267C279.059 325.267 323.041 281.281 323.041 227.217V226.156C323.041 151.324 262.165 90.448 187.333 90.448C179.875 90.448 172.555 91.0632 165.418 92.2244C184.053 83.7569 204.738 79.0359 226.508 79.0359C308.035 79.0359 374.399 145.224 374.689 226.685C374.399 308.145 308.035 374.337 226.508 374.337V374.337Z" fill="#FFCCAF"/>
<path d="M453 225.985C453 225.833 452.997 225.684 452.993 225.536C452.516 165.728 429.004 109.569 386.66 67.2249C343.88 24.4451 286.999 0.884766 226.5 0.884766C166.001 0.884766 109.12 24.4451 66.3401 67.2249C23.9958 109.569 0.483856 165.728 0.00691223 225.536C0.00345612 225.684 0 225.833 0 225.985L0 227.385C0 227.533 0.00345612 227.682 0.00691223 227.831C0.483856 287.642 23.9958 343.801 66.3401 386.145C109.12 428.925 166.001 452.485 226.5 452.485C286.999 452.485 343.88 428.925 386.66 386.145C429.004 343.801 452.516 287.642 452.993 227.831C452.997 227.682 453 227.533 453 227.385C453 227.153 453 226.918 453 226.683C453 226.452 453 226.217 453 225.985V225.985ZM226.5 425.783C116.564 425.783 27.0821 336.532 26.702 226.683C27.0821 116.837 116.564 27.5833 226.5 27.5833C336.436 27.5833 425.918 116.837 426.298 226.683C425.918 336.532 336.436 425.783 226.5 425.783Z" fill="#FFCCAF"/>
</svg>
