<svg width="51" height="51" viewBox="0 0 51 51" fill="none" xmlns="http://www.w3.org/2000/svg">
<circle cx="25.5" cy="25.5" r="25.5" fill="#EBFFC1"/>
<path d="M25.354 27.852V31.592C25.354 31.7973 25.2513 31.9513 25.046 32.054C24.4153 32.3913 23.6307 32.6773 22.692 32.912C21.768 33.1467 20.7853 33.264 19.744 33.264C18.7173 33.264 17.7347 33.066 16.796 32.67C15.8573 32.274 15.1093 31.7167 14.552 30.998C13.4813 29.59 12.946 27.7567 12.946 25.498C12.946 24.1193 13.1513 22.9093 13.562 21.868C13.9873 20.812 14.5447 19.9907 15.234 19.404C16.5833 18.26 18.1307 17.688 19.876 17.688C21.636 17.688 23.1467 18.0767 24.408 18.854C24.6133 18.9713 24.716 19.1327 24.716 19.338V22.088C24.716 22.308 24.606 22.418 24.386 22.418H23.132C22.912 22.418 22.8093 22.308 22.824 22.088L22.89 20.614C21.966 19.954 20.9613 19.624 19.876 19.624C18.8053 19.624 17.94 19.8953 17.28 20.438C16.6347 20.966 16.1873 21.626 15.938 22.418C15.7033 23.1953 15.586 24.1413 15.586 25.256C15.586 26.356 15.718 27.346 15.982 28.226C16.2607 29.106 16.752 29.8393 17.456 30.426C18.1747 31.0127 19.0987 31.306 20.228 31.306C21.372 31.306 22.3253 31.0493 23.088 30.536V27.852H21.68C21.46 27.852 21.35 27.742 21.35 27.522V26.422C21.35 26.202 21.46 26.092 21.68 26.092H26.52C26.74 26.092 26.85 26.202 26.85 26.422V27.522C26.85 27.742 26.74 27.852 26.52 27.852H25.354ZM32.1369 19.822V24.398H35.6349L35.5469 23.276C35.5322 23.056 35.6349 22.946 35.8549 22.946H37.0869C37.3069 22.946 37.4169 23.056 37.4169 23.276V27.17C37.4169 27.39 37.3069 27.5 37.0869 27.5H35.8549C35.6349 27.5 35.5322 27.39 35.5469 27.17L35.6129 26.114H32.1369V31.262H34.4029C34.6229 31.262 34.7329 31.372 34.7329 31.592V32.67C34.7329 32.89 34.6229 33 34.4029 33H28.5069C28.2869 33 28.1769 32.89 28.1769 32.67V31.592C28.1769 31.372 28.2869 31.262 28.5069 31.262H29.6729V19.844H28.5069C28.2869 19.844 28.1769 19.734 28.1769 19.514V18.392C28.1769 18.172 28.2869 18.062 28.5069 18.062H38.4069C38.6269 18.062 38.7369 18.172 38.7369 18.392V21.34C38.7369 21.56 38.6269 21.67 38.4069 21.67H37.1749C36.9549 21.67 36.8522 21.56 36.8669 21.34L36.9549 19.822H32.1369Z" fill="black"/>
</svg>
